<svg width="82" height="15" viewBox="0 0 82 15" fill="none" xmlns="http://www.w3.org/2000/svg">
<path d="M9.38749 5.72927L7.59433 0L5.80132 5.72927H0L4.69374 9.26996L2.90074 15L7.59433 11.4578L12.2881 15L10.4951 9.26996L15.1888 5.72927H9.38749Z" fill="#CC5520"/>
<path d="M26.5904 5.72927L24.7974 0L23.0042 5.72927H17.2029L21.8966 9.26996L20.1036 15L24.7974 11.4578L29.4911 15L27.6979 9.26996L32.3917 5.72927H26.5904Z" fill="#CC5520"/>
<path d="M43.793 5.72927L42 0L40.207 5.72927H34.4055L39.0993 9.26996L37.3063 15L42 11.4578L46.6937 15L44.9007 9.26996L49.5943 5.72927H43.793Z" fill="#CC5520"/>
<path d="M59.9957 5.72927L58.2027 0L56.4097 5.72927H50.6084L55.3021 9.26996L53.509 15L58.2027 11.4578L62.8965 15L61.1035 9.26996L65.7972 5.72927H59.9957Z" fill="#CC5520"/>
<path d="M74.4056 0L72.6125 5.72927H66.8112L71.5049 9.26996L69.7119 15L74.4056 11.4578L79.0992 15L77.3062 9.26996L82 5.72927H76.1986L74.4056 0Z" fill="#CC5520"/>
</svg>
